# xmcd CD database file
#
# Track frame offsets:
#	150
#	27116
#	44076
#	66939
#	84006
#	108926
#	131862
#	155128
#	174113
#	200022
#	215765
#	241175
#
# Disc length: 3416 seconds
#
# Revision: 0
# Processed by: cddbd v1.4PL0 Copyright (c) Steve Scherf et al.
# Submitted via: CDex 1.50beta10
#
DISCID=a60d560c
DTITLE=Bo Ramsey and The Backsliders - Bo Ramsey and The Backsliders
DYEAR=1995
DGENRE=Blues
TTITLE0=Sidetrack lounge
TTITLE1=Long long time
TTITLE2=Jimmy Lee
TTITLE3=Wounded dog
TTITLE4=Clap hands
TTITLE5=Shake your hips
TTITLE6=I don't know
TTITLE7=Get away
TTITLE8=One wrong turn
TTITLE9=Likeable
TTITLE10=Back no more
TTITLE11=Get themselves
EXTD=YEAR: 1995
EXTT0=
EXTT1=
EXTT2=
EXTT3=
EXTT4=
EXTT5=
EXTT6=
EXTT7=
EXTT8=
EXTT9=
EXTT10=
EXTT11=
PLAYORDER=
